<mxfile host="app.diagrams.net" agent="Mozilla/5.0 (Macintosh; Intel Mac OS X 10_15_7) AppleWebKit/537.36 (KHTML, like Gecko) Chrome/135.0.0.0 Safari/537.36" version="26.2.14">
  <diagram name="第 1 页" id="V-YjdcZwovFCDesaPYRV">
    <mxGraphModel dx="1018" dy="689" grid="1" gridSize="10" guides="1" tooltips="1" connect="1" arrows="1" fold="1" page="1" pageScale="1" pageWidth="827" pageHeight="1169" math="0" shadow="0">
      <root>
        <mxCell id="0" />
        <mxCell id="1" parent="0" />
        <mxCell id="iKI9FjyQpgePEkgmbNn4-13" value="" style="rounded=0;whiteSpace=wrap;html=1;" vertex="1" parent="1">
          <mxGeometry x="515" y="370" width="115" height="160" as="geometry" />
        </mxCell>
        <mxCell id="iKI9FjyQpgePEkgmbNn4-12" value="" style="rounded=0;whiteSpace=wrap;html=1;" vertex="1" parent="1">
          <mxGeometry x="165" y="210" width="290" height="320" as="geometry" />
        </mxCell>
        <mxCell id="iKI9FjyQpgePEkgmbNn4-5" style="edgeStyle=orthogonalEdgeStyle;rounded=0;orthogonalLoop=1;jettySize=auto;html=1;" edge="1" parent="1" source="iKI9FjyQpgePEkgmbNn4-1" target="iKI9FjyQpgePEkgmbNn4-3">
          <mxGeometry relative="1" as="geometry" />
        </mxCell>
        <mxCell id="iKI9FjyQpgePEkgmbNn4-1" value="pod客户端" style="rounded=1;whiteSpace=wrap;html=1;fillColor=#dae8fc;strokeColor=#6c8ebf;" vertex="1" parent="1">
          <mxGeometry x="200" y="230" width="90" height="50" as="geometry" />
        </mxCell>
        <mxCell id="iKI9FjyQpgePEkgmbNn4-6" style="edgeStyle=orthogonalEdgeStyle;rounded=0;orthogonalLoop=1;jettySize=auto;html=1;" edge="1" parent="1" source="iKI9FjyQpgePEkgmbNn4-2" target="iKI9FjyQpgePEkgmbNn4-3">
          <mxGeometry relative="1" as="geometry" />
        </mxCell>
        <mxCell id="iKI9FjyQpgePEkgmbNn4-2" value="pod客户端" style="rounded=1;whiteSpace=wrap;html=1;fillColor=#dae8fc;strokeColor=#6c8ebf;" vertex="1" parent="1">
          <mxGeometry x="340" y="230" width="90" height="50" as="geometry" />
        </mxCell>
        <mxCell id="iKI9FjyQpgePEkgmbNn4-7" value="" style="edgeStyle=orthogonalEdgeStyle;rounded=0;orthogonalLoop=1;jettySize=auto;html=1;" edge="1" parent="1" source="iKI9FjyQpgePEkgmbNn4-3" target="iKI9FjyQpgePEkgmbNn4-4">
          <mxGeometry relative="1" as="geometry" />
        </mxCell>
        <mxCell id="iKI9FjyQpgePEkgmbNn4-3" value="external service服务" style="rounded=1;whiteSpace=wrap;html=1;fillColor=#ffe6cc;strokeColor=#d79b00;" vertex="1" parent="1">
          <mxGeometry x="250" y="330" width="120" height="60" as="geometry" />
        </mxCell>
        <mxCell id="iKI9FjyQpgePEkgmbNn4-14" style="edgeStyle=orthogonalEdgeStyle;rounded=0;orthogonalLoop=1;jettySize=auto;html=1;entryX=0;entryY=0.5;entryDx=0;entryDy=0;" edge="1" parent="1" source="iKI9FjyQpgePEkgmbNn4-4" target="iKI9FjyQpgePEkgmbNn4-13">
          <mxGeometry relative="1" as="geometry" />
        </mxCell>
        <mxCell id="iKI9FjyQpgePEkgmbNn4-4" value="external service对应的endpoint" style="rounded=1;whiteSpace=wrap;html=1;fillColor=#fff2cc;strokeColor=#d6b656;" vertex="1" parent="1">
          <mxGeometry x="250" y="440" width="120" height="60" as="geometry" />
        </mxCell>
        <mxCell id="iKI9FjyQpgePEkgmbNn4-8" value="10.1.21.30:80&lt;div&gt;10.1.21.31:80&lt;/div&gt;" style="ellipse;shape=cloud;whiteSpace=wrap;html=1;fillColor=#f8cecc;strokeColor=#b85450;" vertex="1" parent="1">
          <mxGeometry x="350" y="560" width="160" height="90" as="geometry" />
        </mxCell>
        <mxCell id="iKI9FjyQpgePEkgmbNn4-9" style="rounded=0;orthogonalLoop=1;jettySize=auto;html=1;entryX=0.25;entryY=0.25;entryDx=0;entryDy=0;entryPerimeter=0;" edge="1" parent="1" source="iKI9FjyQpgePEkgmbNn4-4" target="iKI9FjyQpgePEkgmbNn4-8">
          <mxGeometry relative="1" as="geometry" />
        </mxCell>
        <mxCell id="iKI9FjyQpgePEkgmbNn4-10" value="10.1.21.30:80" style="rounded=1;whiteSpace=wrap;html=1;fillColor=#d5e8d4;strokeColor=#82b366;" vertex="1" parent="1">
          <mxGeometry x="530" y="390" width="90" height="50" as="geometry" />
        </mxCell>
        <mxCell id="iKI9FjyQpgePEkgmbNn4-11" value="10.1.21.31:80" style="rounded=1;whiteSpace=wrap;html=1;fillColor=#d5e8d4;strokeColor=#82b366;" vertex="1" parent="1">
          <mxGeometry x="530" y="470" width="90" height="50" as="geometry" />
        </mxCell>
        <mxCell id="iKI9FjyQpgePEkgmbNn4-15" value="K8s集群" style="text;html=1;align=center;verticalAlign=middle;whiteSpace=wrap;rounded=0;" vertex="1" parent="1">
          <mxGeometry x="280" y="170" width="60" height="30" as="geometry" />
        </mxCell>
        <mxCell id="iKI9FjyQpgePEkgmbNn4-16" value="外部服务" style="text;html=1;align=center;verticalAlign=middle;whiteSpace=wrap;rounded=0;" vertex="1" parent="1">
          <mxGeometry x="545" y="330" width="60" height="30" as="geometry" />
        </mxCell>
      </root>
    </mxGraphModel>
  </diagram>
</mxfile>
